# xmcd
#
# Track frame offsets: 
#        150
#        12744
#        27819
#        41169
#        55851
#        68428
#        88462
#        104694
#        119019
#        135469
#        155156
#        165333
#        180680
#        194353
#        230023
#        246393
#        265276
#        288313
#        300306
#        324682
#
# Disc length: 4786 seconds
#
# Revision: 0
# Processed by: cddbd v1.5.2PL0 Copyright (c) Steve Scherf et al.
# Submitted via: ExactAudioCopy v1.1
#
DISCID=2812b014
DTITLE=John Lee Hooker - Akella Presents - Greatest Bluesmen - vol. 06
DTITLE=CD2
DYEAR=2017
DGENRE=Blues
TTITLE0=Leave My Wife Alone
TTITLE1=Ramblin' By Myself
TTITLE2=Ground Hog Blues
TTITLE3=Sugar Mama
TTITLE4=No More Doggin'
TTITLE5=I'm Wanderin'
TTITLE6=Wednesday Evenin' Blues
TTITLE7=Come On And See About Me
TTITLE8=One Of These Days
TTITLE9=Behind The Plow
TTITLE10=Bundle Up And Go
TTITLE11=Tupelo Blues
TTITLE12=Water Boy
TTITLE13=Have Mercy On My Soul!
TTITLE14=If You Take Care of Me, I'll Take Care of You
TTITLE15=Baby, I Love You
TTITLE16=Baby, Be Strong
TTITLE17=I Don't Care When You Go
TTITLE18=Bluebird
TTITLE19=713 Blues
EXTD=
EXTT0=
EXTT1=
EXTT2=
EXTT3=
EXTT4=
EXTT5=
EXTT6=
EXTT7=
EXTT8=
EXTT9=
EXTT10=
EXTT11=
EXTT12=
EXTT13=
EXTT14=
EXTT15=
EXTT16=
EXTT17=
EXTT18=
EXTT19=
PLAYORDER=
